<?xml version="1.0" encoding="UTF-8"?>
<svg id="Layer_2" data-name="Layer 2" xmlns="http://www.w3.org/2000/svg" xmlns:xlink="http://www.w3.org/1999/xlink" viewBox="0 0 322.51 80.39">
  <defs>
    <style>
      .cls-1 {
        fill: url(#linear-gradient);
      }

      .cls-1, .cls-2, .cls-3 {
        stroke-width: 0px;
      }

      .cls-4 {
        fill: url(#linear-gradient-4);
      }

      .cls-5 {
        fill: url(#linear-gradient-2);
      }

      .cls-6 {
        fill: url(#linear-gradient-5);
      }

      .cls-2 {
        fill: url(#linear-gradient-3);
      }

      .cls-3 {
        fill: url(#linear-gradient-6);
      }
    </style>
    <linearGradient id="linear-gradient" x1="16167.97" y1="-6420.94" x2="16247.92" y2="-6420.94" gradientTransform="translate(16266.86 6411.54) rotate(-136.95)" gradientUnits="userSpaceOnUse">
      <stop offset="0" stop-color="#7dc200"/>
      <stop offset="1" stop-color="#2eb6b2"/>
    </linearGradient>
    <linearGradient id="linear-gradient-2" x1="178.69" y1="48.1" x2="194.19" y2="48.1" gradientTransform="matrix(1,0,0,1,0,0)" xlink:href="#linear-gradient"/>
    <linearGradient id="linear-gradient-3" x1="81.05" y1="41.83" x2="374.43" y2="41.83" gradientTransform="matrix(1,0,0,1,0,0)" xlink:href="#linear-gradient"/>
    <linearGradient id="linear-gradient-4" x1="80.8" y1="41.08" x2="375.17" y2="41.08" gradientTransform="matrix(1,0,0,1,0,0)" xlink:href="#linear-gradient"/>
    <linearGradient id="linear-gradient-5" x1="178.73" y1="49.86" x2="194.22" y2="49.86" gradientTransform="matrix(1,0,0,1,0,0)" xlink:href="#linear-gradient"/>
    <linearGradient id="linear-gradient-6" x1="272.31" y1="50" x2="414.66" y2="50" gradientTransform="matrix(1,0,0,1,0,0)" xlink:href="#linear-gradient"/>
  </defs>
  <g id="Layer_1-2" data-name="Layer 1">
    <g>
      <path class="cls-1" d="M40.02,80.39c-1.83,0-3.68-.13-5.52-.39-7.89-1.1-15.19-4.58-21.07-10.08l-.73-.68C-3.44,54.17-4.31,28.81,10.74,12.7,21.74.93,38.61-3.09,53.73,2.46c3.23,1.19,4.89,4.77,3.71,8-1.19,3.23-4.77,4.89-8,3.71-10.4-3.81-22.01-1.05-29.58,7.05-10.35,11.09-9.76,28.53,1.33,38.89l.78.73c3.97,3.7,8.91,6.07,14.27,6.81,8.59,1.24,17.21-1.81,23.11-8.13l.34-.39c8.2-9.11,9.1-22.52,2.16-32.63-1.95-2.84-1.22-6.72,1.62-8.67,2.83-1.95,6.72-1.23,8.67,1.62,10.17,14.83,8.9,34.51-3.07,47.91-.19.22-.39.45-.6.67-7.42,7.94-17.76,12.36-28.45,12.36Z"/>
      <g>
        <path class="cls-5" d="M260.14,37.26h14.74v38.92h0c-8.14,0-14.74-6.6-14.74-14.74v-24.19ZM262.3,22.19c1.44-1.44,3.18-2.16,5.2-2.16s3.76.72,5.2,2.16c1.44,1.44,2.16,3.18,2.16,5.21s-.72,3.76-2.16,5.2c-1.44,1.44-3.18,2.16-5.2,2.16s-3.76-.72-5.2-2.16c-1.44-1.44-2.16-3.18-2.16-5.2s.72-3.76,2.16-5.21Z"/>
        <path class="cls-2" d="M149.66,18.74c-.88.92-1.71,1.83-2.59,2.69-2.46,2.42-4.95,4.81-7.4,7.23-.42.41-.66.37-1.09-.06-1.87-1.86-4.1-3.36-6.63-4.09-5.34-1.53-10.4-.91-14.9,1.88-4.17,2.59-7.19,6.8-8.27,11.59-.87,3.86-.46,7.61,1.16,11.23,1.26,2.82,3.24,5.29,5.72,7.14,3.16,2.36,6.74,3.58,10.72,3.59,4.18.01,7.99-1.12,11.28-3.77.51-.41.98-.86,1.51-1.33.15.13.3.25.44.38,3.16,3.16,6.32,6.33,9.49,9.48.8.79-.08.8-4.36,4.07-1.85,1.42-3.85,2.67-6.01,3.55-3.2,1.3-6.51,2.07-9.96,2.33-5.37.4-10.54-.44-15.53-2.54-4.05-1.7-7.72-4.25-10.76-7.42-5.16-5.39-8.17-11.8-8.98-19.25-.71-6.54.42-12.76,3.38-18.6s7.68-10.73,13.44-13.88c5.49-3.01,11.4-4.38,17.64-4,8.1.49,15.2,3.43,21.07,9.12.19.19.39.37.58.56.03.03.03.07.04.09Z"/>
        <path class="cls-4" d="M169.49,28.99c1-.73,1.84-1.45,2.78-2.01,2.63-1.57,5.5-2.39,8.57-2.45,3.18-.06,6.26.36,9.17,1.75,3.13,1.5,5.3,3.9,6.76,7.01,1.35,2.87,1.87,5.94,2.11,9.07.2,2.61.07,5.26.16,7.85.24,7.51.06,15.03-.03,22.55-.02,1.32.13,1.22-1.17,1.14-2.31-.15-4.57-.83-6.49-2.12-3.92-2.65-6.27-6.14-6.93-10.51-.1-.67-.12-1.36-.13-2.04,0-4.52.07-9.04-.01-13.55-.06-3.19-1.31-5.81-4.33-7.21-2.18-1.01-4.41-.63-6.57.23-2.63,1.05-3.65,3.3-4.03,5.94-.13.88-.16,1.77-.16,2.66-.02,8.55,0,17.09,0,25.64q0,1.07-1.05.99c-7.12-.49-12.68-5.76-13.54-12.87-.09-.74-.13-1.5-.13-2.25,0-16.56,0-33.12,0-49.68,0-.91,0-.93.93-.9,5.08.19,8.96,2.51,11.75,6.71,1.71,2.58,2.34,5.46,2.36,8.51.01,1.62,0,3.24,0,4.86v.68Z"/>
        <path class="cls-6" d="M255.95,61.17c0,4.41,0,8.83,0,13.24,0,.81,0,.84-.8.79-2.86-.17-5.4-1.16-7.61-3-.54-.45-1.05-.94-1.53-1.46-.22-.23-.56-.29-.84-.13-1.21.72-2.41,1.46-3.67,2.08-4.56,2.22-9.38,3.07-14.39,2.28-8.58-1.35-14.84-5.78-18.8-13.09-1.93-3.55-3.32-9.68-3.04-13.71.4-5.75,2.53-10.8,6.35-15.12,3.99-4.52,9.01-7.24,14.94-8.24,3.92-.66,7.82-.44,11.59.85,9.24,3.16,15,9.46,17.2,18.84.37,1.56.53,3.17.57,4.78.08,3.96.03,7.93.03,11.89ZM230.59,62.03c6.69,0,11.92-5.34,11.91-12.16,0-6.55-5.49-11.92-12.17-11.91-6.42,0-11.9,5.61-11.9,12.17,0,6.55,5.47,11.91,12.16,11.91Z"/>
        <path class="cls-3" d="M322.51,24.32h0c0,7.87-6.38,14.25-14.25,14.25h-2.29c-3.17,0-5.85,1.11-8.05,3.33-2.2,2.23-3.3,4.93-3.3,8.09v25.68c-3.93,0-7.49-1.59-10.07-4.17-2.58-2.58-4.17-6.14-4.17-10.08v-10.83c0-7.1,2.68-14.04,7.75-19.02,4.77-4.67,10.49-7.08,17.14-7.23.23-.02.46-.02.7-.02h16.54Z"/>
      </g>
    </g>
  </g>
</svg>